<?xml version="1.0" encoding="iso-8859-1"?>
<!-- Generator: Adobe Illustrator 22.0.0, SVG Export Plug-In . SVG Version: 6.00 Build 0)  -->
<svg version="1.1" id="&#x56FE;&#x5C42;_1" xmlns="http://www.w3.org/2000/svg" xmlns:xlink="http://www.w3.org/1999/xlink" x="0px"
	 y="0px" style="enable-background:new 0 0 292 292;" xml:space="preserve">
<title>画板</title>
<desc>Created with Sketch.</desc>
<symbol viewBox="0 0 292 292" id="yoyow-icon">
<path style="fill:none;stroke:#FFFFFF;stroke-width:4;" d="M146,2c79.529,0,144,64.471,144,144s-64.471,144-144,144S2,225.529,2,146
	S66.471,2,146,2z M50,110c13.255,0,24,10.745,24,24s-10.745,24-24,24s-24-10.745-24-24S36.745,110,50,110z M146,110
	c13.255,0,24,10.745,24,24s-10.745,24-24,24s-24-10.745-24-24S132.745,110,146,110z M242,110c13.255,0,24,10.745,24,24
	s-10.745,24-24,24s-24-10.745-24-24S228.745,110,242,110z M194,158c13.255,0,24,10.745,24,24s-10.745,24-24,24s-24-10.745-24-24
	S180.745,158,194,158z M98,158c13.255,0,24,10.745,24,24s-10.745,24-24,24s-24-10.745-24-24S84.745,158,98,158z M74,148
	c5.523,0,10,4.477,10,10s-4.477,10-10,10s-10-4.477-10-10S68.477,148,74,148z M122,148c5.523,0,10,4.477,10,10s-4.477,10-10,10
	s-10-4.477-10-10S116.477,148,122,148z M170,148c5.523,0,10,4.477,10,10s-4.477,10-10,10s-10-4.477-10-10S164.477,148,170,148z
	 M218,148c5.523,0,10,4.477,10,10s-4.477,10-10,10s-10-4.477-10-10S212.477,148,218,148z"/>
<path style="fill:#FFFFFF;" d="M50,110c13.255,0,24,10.745,24,24s-10.745,24-24,24s-24-10.745-24-24S36.745,110,50,110z M146,110
	c13.255,0,24,10.745,24,24s-10.745,24-24,24s-24-10.745-24-24S132.745,110,146,110z M242,110c13.255,0,24,10.745,24,24
	s-10.745,24-24,24s-24-10.745-24-24S228.745,110,242,110z M194,158c13.255,0,24,10.745,24,24s-10.745,24-24,24s-24-10.745-24-24
	S180.745,158,194,158z M98,158c13.255,0,24,10.745,24,24s-10.745,24-24,24s-24-10.745-24-24S84.745,158,98,158z M74,148
	c5.523,0,10,4.477,10,10s-4.477,10-10,10s-10-4.477-10-10S68.477,148,74,148z M122,148c5.523,0,10,4.477,10,10s-4.477,10-10,10
	s-10-4.477-10-10S116.477,148,122,148z M170,148c5.523,0,10,4.477,10,10s-4.477,10-10,10s-10-4.477-10-10S164.477,148,170,148z
	 M218,148c5.523,0,10,4.477,10,10s-4.477,10-10,10s-10-4.477-10-10S212.477,148,218,148z"/>
</symbol>
</svg>
